<svg xmlns="http://www.w3.org/2000/svg" data-name="Layer 1" viewBox="0 0 64 64" id="receive-money"><path d="M54 23h-7.586l8.293-8.293A1 1 0 0 0 54 13h-5V6a1 1 0 0 0-1-1h-8a1 1 0 0 0-1 1v7h-5a1 1 0 0 0-.707 1.707L41.586 23H22.414l8.293-8.293A1 1 0 0 0 30 13h-5V6a1 1 0 0 0-1-1h-8a1 1 0 0 0-1 1v7h-5a1 1 0 0 0-.707 1.707L17.586 23H10a5.006 5.006 0 0 0-5 5v26a5.006 5.006 0 0 0 5 5h44a5.006 5.006 0 0 0 5-5V28a5.006 5.006 0 0 0-5-5Zm-14-8a1 1 0 0 0 1-1V7h6v7a1 1 0 0 0 1 1h3.586L44 22.586 36.414 15Zm-24 0a1 1 0 0 0 1-1V7h6v7a1 1 0 0 0 1 1h3.586L20 22.586 12.414 15Zm41 39a3 3 0 0 1-3 3H10a3 3 0 0 1-3-3V28a3 3 0 0 1 3-3h44a3 3 0 0 1 3 3Z"></path><path d="M53 34a5.006 5.006 0 0 1-5-5 1 1 0 0 0-1-1H17a1 1 0 0 0-1 1 5.006 5.006 0 0 1-5 5 1 1 0 0 0-1 1v12a1 1 0 0 0 1 1 5.006 5.006 0 0 1 5 5 1 1 0 0 0 1 1h30a1 1 0 0 0 1-1 5.006 5.006 0 0 1 5-5 1 1 0 0 0 1-1V35a1 1 0 0 0-1-1Zm-1 12.071A7.015 7.015 0 0 0 46.071 52H17.929A7.015 7.015 0 0 0 12 46.071V35.929A7.015 7.015 0 0 0 17.929 30h28.142A7.015 7.015 0 0 0 52 35.929Z"></path><path d="M32 36a5 5 0 1 0 5 5 5.006 5.006 0 0 0-5-5zm0 8a3 3 0 1 1 3-3 3 3 0 0 1-3 3zm-8-4h-2a1 1 0 0 0 0 2h2a1 1 0 0 0 0-2zm18 0h-2a1 1 0 0 0 0 2h2a1 1 0 0 0 0-2z"></path></svg>